<svg width="1280" height="697" viewBox="0 0 1280 697" fill="none" xmlns="http://www.w3.org/2000/svg">
<rect width="1280" height="697" fill="#2A607C"/>
<path d="M369.182 395V301.909H386.045V341.318H429.182V301.909H446.091V395H429.182V355.455H386.045V395H369.182ZM494.159 396.364C487.341 396.364 481.432 394.864 476.432 391.864C471.432 388.864 467.553 384.667 464.795 379.273C462.068 373.879 460.705 367.576 460.705 360.364C460.705 353.152 462.068 346.833 464.795 341.409C467.553 335.985 471.432 331.773 476.432 328.773C481.432 325.773 487.341 324.273 494.159 324.273C500.977 324.273 506.886 325.773 511.886 328.773C516.886 331.773 520.75 335.985 523.477 341.409C526.235 346.833 527.614 353.152 527.614 360.364C527.614 367.576 526.235 373.879 523.477 379.273C520.75 384.667 516.886 388.864 511.886 391.864C506.886 394.864 500.977 396.364 494.159 396.364ZM494.25 383.182C497.947 383.182 501.038 382.167 503.523 380.136C506.008 378.076 507.856 375.318 509.068 371.864C510.311 368.409 510.932 364.561 510.932 360.318C510.932 356.045 510.311 352.182 509.068 348.727C507.856 345.242 506.008 342.47 503.523 340.409C501.038 338.348 497.947 337.318 494.25 337.318C490.462 337.318 487.311 338.348 484.795 340.409C482.311 342.47 480.447 345.242 479.205 348.727C477.992 352.182 477.386 356.045 477.386 360.318C477.386 364.561 477.992 368.409 479.205 371.864C480.447 375.318 482.311 378.076 484.795 380.136C487.311 382.167 490.462 383.182 494.25 383.182ZM541.58 395V325.182H557.534V336.818H558.261C559.534 332.788 561.716 329.682 564.807 327.5C567.928 325.288 571.489 324.182 575.489 324.182C576.398 324.182 577.413 324.227 578.534 324.318C579.686 324.379 580.64 324.485 581.398 324.636V339.773C580.701 339.53 579.595 339.318 578.08 339.136C576.595 338.924 575.155 338.818 573.761 338.818C570.761 338.818 568.064 339.47 565.67 340.773C563.307 342.045 561.443 343.818 560.08 346.091C558.716 348.364 558.034 350.985 558.034 353.955V395H541.58ZM592.33 395V325.182H608.784V395H592.33ZM600.602 315.273C597.996 315.273 595.754 314.409 593.875 312.682C591.996 310.924 591.057 308.818 591.057 306.364C591.057 303.879 591.996 301.773 593.875 300.045C595.754 298.288 597.996 297.409 600.602 297.409C603.239 297.409 605.481 298.288 607.33 300.045C609.208 301.773 610.148 303.879 610.148 306.364C610.148 308.818 609.208 310.924 607.33 312.682C605.481 314.409 603.239 315.273 600.602 315.273ZM680.886 343.636L665.886 345.273C665.462 343.758 664.72 342.333 663.659 341C662.629 339.667 661.235 338.591 659.477 337.773C657.72 336.955 655.568 336.545 653.023 336.545C649.598 336.545 646.72 337.288 644.386 338.773C642.083 340.258 640.947 342.182 640.977 344.545C640.947 346.576 641.689 348.227 643.205 349.5C644.75 350.773 647.295 351.818 650.841 352.636L662.75 355.182C669.356 356.606 674.265 358.864 677.477 361.955C680.72 365.045 682.356 369.091 682.386 374.091C682.356 378.485 681.068 382.364 678.523 385.727C676.008 389.061 672.508 391.667 668.023 393.545C663.538 395.424 658.386 396.364 652.568 396.364C644.023 396.364 637.144 394.576 631.932 391C626.72 387.394 623.614 382.379 622.614 375.955L638.659 374.409C639.386 377.561 640.932 379.939 643.295 381.545C645.659 383.152 648.735 383.955 652.523 383.955C656.432 383.955 659.568 383.152 661.932 381.545C664.326 379.939 665.523 377.955 665.523 375.591C665.523 373.591 664.75 371.939 663.205 370.636C661.689 369.333 659.326 368.333 656.114 367.636L644.205 365.136C637.508 363.742 632.553 361.394 629.341 358.091C626.129 354.758 624.538 350.545 624.568 345.455C624.538 341.152 625.705 337.424 628.068 334.273C630.462 331.091 633.78 328.636 638.023 326.909C642.295 325.152 647.22 324.273 652.795 324.273C660.977 324.273 667.417 326.015 672.114 329.5C676.841 332.985 679.765 337.697 680.886 343.636ZM726.864 396.364C719.864 396.364 713.818 394.909 708.727 392C703.667 389.061 699.773 384.909 697.045 379.545C694.318 374.152 692.955 367.803 692.955 360.5C692.955 353.318 694.318 347.015 697.045 341.591C699.803 336.136 703.652 331.894 708.591 328.864C713.53 325.803 719.333 324.273 726 324.273C730.303 324.273 734.364 324.97 738.182 326.364C742.03 327.727 745.424 329.848 748.364 332.727C751.333 335.606 753.667 339.273 755.364 343.727C757.061 348.152 757.909 353.424 757.909 359.545V364.591H700.682V353.5H742.136C742.106 350.348 741.424 347.545 740.091 345.091C738.758 342.606 736.894 340.652 734.5 339.227C732.136 337.803 729.379 337.091 726.227 337.091C722.864 337.091 719.909 337.909 717.364 339.545C714.818 341.152 712.833 343.273 711.409 345.909C710.015 348.515 709.303 351.379 709.273 354.5V364.182C709.273 368.242 710.015 371.727 711.5 374.636C712.985 377.515 715.061 379.727 717.727 381.273C720.394 382.788 723.515 383.545 727.091 383.545C729.485 383.545 731.652 383.212 733.591 382.545C735.53 381.848 737.212 380.833 738.636 379.5C740.061 378.167 741.136 376.515 741.864 374.545L757.227 376.273C756.258 380.333 754.409 383.879 751.682 386.909C748.985 389.909 745.53 392.242 741.318 393.909C737.106 395.545 732.288 396.364 726.864 396.364ZM802.284 396.364C795.466 396.364 789.557 394.864 784.557 391.864C779.557 388.864 775.678 384.667 772.92 379.273C770.193 373.879 768.83 367.576 768.83 360.364C768.83 353.152 770.193 346.833 772.92 341.409C775.678 335.985 779.557 331.773 784.557 328.773C789.557 325.773 795.466 324.273 802.284 324.273C809.102 324.273 815.011 325.773 820.011 328.773C825.011 331.773 828.875 335.985 831.602 341.409C834.36 346.833 835.739 353.152 835.739 360.364C835.739 367.576 834.36 373.879 831.602 379.273C828.875 384.667 825.011 388.864 820.011 391.864C815.011 394.864 809.102 396.364 802.284 396.364ZM802.375 383.182C806.072 383.182 809.163 382.167 811.648 380.136C814.133 378.076 815.981 375.318 817.193 371.864C818.436 368.409 819.057 364.561 819.057 360.318C819.057 356.045 818.436 352.182 817.193 348.727C815.981 345.242 814.133 342.47 811.648 340.409C809.163 338.348 806.072 337.318 802.375 337.318C798.587 337.318 795.436 338.348 792.92 340.409C790.436 342.47 788.572 345.242 787.33 348.727C786.117 352.182 785.511 356.045 785.511 360.318C785.511 364.561 786.117 368.409 787.33 371.864C788.572 375.318 790.436 378.076 792.92 380.136C795.436 382.167 798.587 383.182 802.375 383.182ZM866.159 354.091V395H849.705V325.182H865.432V337.045H866.25C867.856 333.136 870.417 330.03 873.932 327.727C877.477 325.424 881.856 324.273 887.068 324.273C891.886 324.273 896.083 325.303 899.659 327.364C903.265 329.424 906.053 332.409 908.023 336.318C910.023 340.227 911.008 344.97 910.977 350.545V395H894.523V353.091C894.523 348.424 893.311 344.773 890.886 342.136C888.492 339.5 885.174 338.182 880.932 338.182C878.053 338.182 875.492 338.818 873.25 340.091C871.038 341.333 869.295 343.136 868.023 345.5C866.78 347.864 866.159 350.727 866.159 354.091Z" fill="white"/>
</svg>
